<svg id="vpn_key_black_24dp" xmlns="http://www.w3.org/2000/svg" width="15.5" height="15.5" viewBox="0 0 15.5 15.5">
	<path id="Path_349" data-name="Path 349" d="M0,0H15.5V15.5H0Z" transform="translate(0)" fill="none" />
	<path id="Path_350" data-name="Path 350" d="M14.209,14.042H10.333V11.458H8.6a4.521,4.521,0,1,1,0-3.875h6.9v3.875H14.209ZM11.625,12.75h1.292V10.167h1.292V8.875h-6.5l-.149-.433a3.229,3.229,0,1,0,0,2.157l.149-.433h3.914Zm-7.1-1.292A1.938,1.938,0,1,1,6.458,9.521,1.943,1.943,0,0,1,4.521,11.458Zm0-2.583a.646.646,0,1,0,.646.646A.648.648,0,0,0,4.521,8.875Z" transform="translate(0 -1.771)" />
</svg>