<svg xmlns="http://www.w3.org/2000/svg" fill="none" viewBox="0 0 82 79">
  <path stroke="#FF8E3E" stroke-linecap="round" stroke-linejoin="round" stroke-miterlimit="1.5" stroke-opacity=".25" stroke-width="2.131" d="M39.458 15.05C35.551 9.07 29.59 4.37 22.07 2.452 3.391-2.31 1.522 17.432 1.65 17.4m37.808-2.35c4.289 6.564 6.104 14.67 4.793 22.332-1.073 6.269-8.758 16.21-15.435 9.335-5.993-6.172-4.842-17.088-.167-23.659 3.314-4.658 7.03-7.185 10.81-8.008Zm0 0c7.48-1.628 15.2 3.424 20.516 11.847 8.863 14.044 8.63 30.299 4.505 45.631m15.552-8.427c-1.753.108-3.268.928-4.822 1.67-5.104 2.432-9.823 6.684-11.894 12.079.303-6.253-1.412-14.472-6.865-18.15"/>
</svg>
