<svg xmlns="http://www.w3.org/2000/svg" fill="none" viewBox="0 0 33 33">
  <path fill="#fff" d="M2.28 0h28.44A2.28 2.28 0 0 1 33 2.28v28.44A2.28 2.28 0 0 1 30.72 33H2.28A2.28 2.28 0 0 1 0 30.72V2.28A2.28 2.28 0 0 1 2.28 0Z"/>
  <path fill="#822ABB" d="M27.842 20.918c-.017.548.06 3.267-.092 3.74-.288 1.105-1.168 1.956-2.087 2.576-4.64 3.015-13.501 3.02-18.188.093-.946-.61-1.86-1.447-2.2-2.553-.225-.54-.085-3.353-.126-3.96h.006c.009.186.037.371.084.552 2.215 6.343 18.707 6.244 22.09.985.278-.435.453-.92.513-1.433Zm.025-11.959c-.287 3.575-5.383 4.895-8.339 5.309-3.983.478-8.248.159-11.82-1.803-1.283-.727-2.572-1.916-2.582-3.485.793-7.302 21.92-7.328 22.741-.021Z"/>
  <path fill="#822ABB" d="M27.864 10.725c-.045.75.132 4.06-.186 4.706-1.224 2.94-5.286 3.946-8.153 4.375-4.435.494-9.732.159-13.255-2.882-.524-.52-.924-1.141-1.075-1.86-.115-.297-.044-3.863-.066-4.258.368 3.618 5.985 4.928 8.975 5.243 3.854.523 13.227-.415 13.76-5.324Z"/>
  <path fill="#822ABB" d="M27.852 16.29c-.067 2.571.489 4.043-1.898 5.795-3.98 2.727-10.053 2.938-14.635 1.86-2.32-.647-5.315-1.687-6.085-4.23-.173-.583-.059-2.987-.093-3.625h.002c0 .05.003.097.006.146.03.461.186.908.417 1.307a4.918 4.918 0 0 0 .993 1.189c4.407 3.614 13.215 3.583 18.188 1.138 1.436-.713 2.91-1.884 3.105-3.58Z"/>
</svg>