<svg xmlns="http://www.w3.org/2000/svg" width="14.114" height="14.095" viewBox="0 0 14.114 14.095">

        <path d="M105-856.727a11.642,11.642,0,0,0,5.1-.969q1.983-.969,1.983-2.149,0-1.236-1.983-2.2A11.739,11.739,0,0,0,105-863a11.5,11.5,0,0,0-5.055.959q-1.956.959-1.956,2.2,0,1.181,1.956,2.149A11.408,11.408,0,0,0,105-856.727Zm.018,1.66a17.083,17.083,0,0,0,2.555-.194,10,10,0,0,0,2.278-.6,5.655,5.655,0,0,0,1.614-.95,1.609,1.609,0,0,0,.618-1.227v2.251a1.636,1.636,0,0,1-.618,1.236,5.249,5.249,0,0,1-1.614.941,11.072,11.072,0,0,1-2.278.59,16.32,16.32,0,0,1-2.555.2,15.356,15.356,0,0,1-2.564-.212,11.951,11.951,0,0,1-2.269-.6,5.089,5.089,0,0,1-1.624-.941,1.565,1.565,0,0,1-.59-1.218v-2.251a1.506,1.506,0,0,0,.59,1.208,5.579,5.579,0,0,0,1.624.922,11.923,11.923,0,0,0,2.269.618A14.73,14.73,0,0,0,105.019-855.067Zm0,3.911a15.625,15.625,0,0,0,2.555-.212,11.461,11.461,0,0,0,2.278-.6,5.249,5.249,0,0,0,1.614-.941,1.652,1.652,0,0,0,.618-1.255v2.288a1.62,1.62,0,0,1-.618,1.218,5.382,5.382,0,0,1-1.614.95,10.682,10.682,0,0,1-2.278.6,16.32,16.32,0,0,1-2.555.2,15.356,15.356,0,0,1-2.564-.212,11.5,11.5,0,0,1-2.269-.609,5.33,5.33,0,0,1-1.624-.941,1.54,1.54,0,0,1-.59-1.208v-2.288a1.557,1.557,0,0,0,.59,1.227,5.329,5.329,0,0,0,1.624.941,11.923,11.923,0,0,0,2.269.618A14.73,14.73,0,0,0,105.019-851.155Z" transform="translate(-97.971 863)" fill="#dc3154" />

</svg>