<svg xmlns="http://www.w3.org/2000/svg" width="10.354" height="10.341" viewBox="0 0 10.354 10.341">
        <path d="M103.128-858.4a8.541,8.541,0,0,0,3.742-.711q1.455-.71,1.455-1.577,0-.907-1.455-1.611a8.612,8.612,0,0,0-3.742-.7,8.438,8.438,0,0,0-3.709.7q-1.435.7-1.435,1.611,0,.866,1.435,1.577A8.369,8.369,0,0,0,103.128-858.4Zm.014,1.218a12.519,12.519,0,0,0,1.875-.142,7.335,7.335,0,0,0,1.672-.44,4.148,4.148,0,0,0,1.184-.7,1.18,1.18,0,0,0,.453-.9v1.651a1.2,1.2,0,0,1-.453.907,3.851,3.851,0,0,1-1.184.69,8.116,8.116,0,0,1-1.672.433,11.961,11.961,0,0,1-1.875.149,11.251,11.251,0,0,1-1.881-.156,8.759,8.759,0,0,1-1.665-.44,3.732,3.732,0,0,1-1.191-.69,1.148,1.148,0,0,1-.433-.893v-1.651a1.1,1.1,0,0,0,.433.886,4.092,4.092,0,0,0,1.191.677,8.742,8.742,0,0,0,1.665.453A10.818,10.818,0,0,0,103.141-857.18Zm0,2.869a11.466,11.466,0,0,0,1.875-.156,8.408,8.408,0,0,0,1.672-.44,3.85,3.85,0,0,0,1.184-.69,1.212,1.212,0,0,0,.453-.92v1.678a1.188,1.188,0,0,1-.453.893,3.947,3.947,0,0,1-1.184.7,7.828,7.828,0,0,1-1.672.44,11.961,11.961,0,0,1-1.875.149,11.264,11.264,0,0,1-1.881-.156,8.444,8.444,0,0,1-1.665-.447,3.913,3.913,0,0,1-1.191-.69,1.129,1.129,0,0,1-.433-.887v-1.678a1.142,1.142,0,0,0,.433.9,3.908,3.908,0,0,0,1.191.69,8.751,8.751,0,0,0,1.665.453A10.818,10.818,0,0,0,103.141-854.311Z" transform="translate(-97.971 863)" fill="#dc3154" />
</svg>