<svg xmlns="http://www.w3.org/2000/svg" width="13.148" height="12.933" viewBox="0 0 13.148 12.933">
	<path d="M56.863-889.067l-.322-2.04a2.111,2.111,0,0,1-.473-.212,3.245,3.245,0,0,1-.432-.294l-1.9.875L52-893.808l1.734-1.26a1.137,1.137,0,0,1-.015-.217v-.464a1.774,1.774,0,0,1,.015-.237L52-897.275l1.734-3.038,1.933.874a4.074,4.074,0,0,1,.413-.264,2.341,2.341,0,0,1,.461-.211L56.863-902h3.421l.307,2.071a1.873,1.873,0,0,1,.483.215q.253.153.422.276l1.933-.874,1.718,3.038-1.764,1.243q.015.116.038.261a1.609,1.609,0,0,1,.023.245,1.465,1.465,0,0,1-.023.238q-.023.137-.038.238l1.764,1.243L63.4-890.739l-1.9-.875a3.74,3.74,0,0,1-.437.3,1.765,1.765,0,0,1-.453.207l-.322,2.04Zm1.688-4.51a1.879,1.879,0,0,0,1.379-.569,1.875,1.875,0,0,0,.569-1.377,1.89,1.89,0,0,0-.569-1.372,1.864,1.864,0,0,0-1.379-.578,1.858,1.858,0,0,0-1.388.576,1.9,1.9,0,0,0-.56,1.37,1.9,1.9,0,0,0,.56,1.38A1.867,1.867,0,0,0,58.551-893.577Zm-.009-.874a1.009,1.009,0,0,1-.758-.32,1.055,1.055,0,0,1-.307-.756,1.044,1.044,0,0,1,.31-.754,1.02,1.02,0,0,1,.759-.318,1.039,1.039,0,0,1,.756.319,1.03,1.03,0,0,1,.322.756,1.021,1.021,0,0,1-.324.754A1.05,1.05,0,0,1,58.541-894.452ZM58.582-895.526Zm-.552,5.063h1.079l.228-1.7a4.383,4.383,0,0,0,1-.391,3.186,3.186,0,0,0,.841-.667l1.623.721.476-.905-1.427-1.028a5.162,5.162,0,0,0,.123-.54,3.249,3.249,0,0,0,.046-.547,3.363,3.363,0,0,0-.046-.554q-.046-.276-.107-.522l1.427-1.043-.491-.905-1.623.721a3.466,3.466,0,0,0-.825-.726,2.3,2.3,0,0,0-1.025-.348l-.209-1.688h-1.1l-.2,1.688a3.381,3.381,0,0,0-1.02.384,3.541,3.541,0,0,0-.851.675l-1.591-.706-.5.905,1.411,1.013a3.709,3.709,0,0,0-.115.537,4.185,4.185,0,0,0-.038.576,4.174,4.174,0,0,0,.038.575,2.834,2.834,0,0,0,.115.506l-1.411,1.028.491.905,1.6-.721a3.7,3.7,0,0,0,.859.69,3.286,3.286,0,0,0,1.013.384Z" transform="translate(-52 902)" />
</svg>