<svg xmlns="http://www.w3.org/2000/svg" width="17.187" height="15.52" viewBox="0 0 17.187 15.52">

    <path d="M68.211-851.159H72.1v-3.905H70.652v2.441H68.211Zm-7.139-3.865h1.464v-2.441h2.441v-1.444H61.071Zm2.258,8.543v-1.607H59.851a1.78,1.78,0,0,1-1.3-.547,1.78,1.78,0,0,1-.547-1.3v-10.19a1.809,1.809,0,0,1,.547-1.318,1.771,1.771,0,0,1,1.3-.553H73.316a1.8,1.8,0,0,1,1.318.553,1.8,1.8,0,0,1,.553,1.318v10.19a1.771,1.771,0,0,1-.553,1.3,1.809,1.809,0,0,1-1.318.547H69.858v1.607Zm-3.478-3.458H73.316v-10.19H59.851Zm0,0v0Z" transform="translate(-58 862)" fill="#822abb" />

</svg>