<svg xmlns="http://www.w3.org/2000/svg" width="15.436" height="15.436" viewBox="0 0 15.436 15.436">
	<rect width="15.436" height="15.436" fill="none" />
	<g transform="translate(0.887 1.57)">
		<path d="M14.3,3H3.366A1.362,1.362,0,0,0,2,4.366v8.2A1.366,1.366,0,0,0,3.366,13.93H6.1V15.3h5.465V13.93H14.3a1.37,1.37,0,0,0,1.366-1.366v-8.2A1.366,1.366,0,0,0,14.3,3Zm0,9.564H3.366v-8.2H14.3Z" transform="translate(-2 -3)" />
		<path d="M6.025,7.025H7.733V6H5V8.733H6.025Z" transform="translate(-2.951 -3.951)" />
		<path d="M17.733,12H16.708v1.708H15v1.025h2.733Z" transform="translate(-6.119 -5.852)" />
	</g>
</svg>