<svg xmlns="http://www.w3.org/2000/svg" width="167.179" height="22.911" viewBox="0 0 167.179 22.911">
  <g id="Group_620" data-name="Group 620" transform="translate(-296.13 -1205.306)">
    <g id="Group_623" data-name="Group 623">
      <g id="Group_614" data-name="Group 614" transform="translate(294.034 1207.218)">
        <text id="Reset_Comments" data-name="Reset Comments" transform="translate(37.275 16)" fill="#822abb" font-size="15" font-family="Poppins-SemiBold, Poppins" font-weight="600"><tspan x="0" y="0">Reset Comments</tspan></text>
        <g id="Group_337" data-name="Group 337" transform="translate(-6.87 6.332)">
          <g id="Group_335" data-name="Group 335" transform="translate(8.966 -8.244)">
            <g id="Group_336" data-name="Group 336" transform="translate(0 0)">
              <path id="Path_173" data-name="Path 173" d="M8.783,4.207V5.873a4.756,4.756,0,0,0-1.594,8.044V11.972H8.783v4.783H4V15.16H6.176A6.361,6.361,0,0,1,8.783,4.207Zm7.972,1.387H14.579A6.362,6.362,0,0,1,16.7,9.58h-1.61a4.786,4.786,0,0,0-1.523-2.742V8.783H11.972V4h4.783Z" transform="translate(-4 -4)" fill="#822abb"/>
            </g>
          </g>
        </g>
      </g>
      <g id="Group_627" data-name="Group 627" transform="translate(302.081 1211.745)">
        <g id="Group_628" data-name="Group 628" transform="translate(0 0)">
          <path id="Path_372" data-name="Path 372" d="M1.643.2h9.975a1.619,1.619,0,0,1,1.443,1.751v6A1.624,1.624,0,0,1,11.618,9.7H3.554L.2,11.591V1.951A1.619,1.619,0,0,1,1.643.2Z" transform="translate(0.667 0.667)" fill="none" stroke="#822abb" stroke-linecap="round" stroke-miterlimit="10" stroke-width="1.5"/>
          <line id="Line_5" data-name="Line 5" x2="6.712" transform="translate(4.222 4.26)" fill="none" stroke="#822abb" stroke-miterlimit="10" stroke-width="1.5"/>
          <line id="Line_6" data-name="Line 6" x2="6.712" transform="translate(4.222 6.974)" fill="none" stroke="#822abb" stroke-miterlimit="10" stroke-width="1.5"/>
        </g>
      </g>
    </g>
  </g>
</svg>
