<svg xmlns="http://www.w3.org/2000/svg" width="174.179" height="22.911" viewBox="0 0 174.179 22.911">
  <g id="Group_619" data-name="Group 619" transform="translate(-296.13 -1205.306)">
    <g id="Group_623" data-name="Group 623">
      <g id="Group_614" data-name="Group 614" transform="translate(294.034 1207.218)">
        <text id="Reset_Taxonomies" data-name="Reset Taxonomies" transform="translate(37.275 16)" fill="#822abb" font-size="15" font-family="Poppins-SemiBold, Poppins" font-weight="600"><tspan x="0" y="0">Reset Taxonomies</tspan></text>
        <g id="Group_337" data-name="Group 337" transform="translate(-6.87 6.332)">
          <g id="Group_335" data-name="Group 335" transform="translate(8.966 -8.244)">
            <g id="Group_336" data-name="Group 336" transform="translate(0 0)">
              <path id="Path_173" data-name="Path 173" d="M8.783,4.207V5.873a4.756,4.756,0,0,0-1.594,8.044V11.972H8.783v4.783H4V15.16H6.176A6.361,6.361,0,0,1,8.783,4.207Zm7.972,1.387H14.579A6.362,6.362,0,0,1,16.7,9.58h-1.61a4.786,4.786,0,0,0-1.523-2.742V8.783H11.972V4h4.783Z" transform="translate(-4 -4)" fill="#822abb"/>
            </g>
          </g>
        </g>
      </g>
      <g id="Group_621" data-name="Group 621" transform="translate(303 1213)">
        <g id="Group_622" data-name="Group 622" transform="translate(0 0)">
          <path id="Path_371" data-name="Path 371" d="M7.961,6.835H6.824V7.2q.006,1.5,0,3a.562.562,0,0,1-.407.6,1.412,1.412,0,0,1-.38.046c-.488.008-.975,0-1.463,0l-.015.008c0,.18,0,.361-.008.541a1.137,1.137,0,0,1-.353.822,1.1,1.1,0,0,1-.749.315c-.73.008-1.463,0-2.193,0a1.252,1.252,0,0,1-.6-.111,1.12,1.12,0,0,1-.622-.783A2.164,2.164,0,0,1,0,11.244c0-.6,0-1.194,0-1.793a4.182,4.182,0,0,1,.012-.492,1.031,1.031,0,0,1,.219-.53A1.122,1.122,0,0,1,1,8c.092-.008.188-.015.284-.015.741,0,1.482-.008,2.22,0a1.02,1.02,0,0,1,.676.288,1.025,1.025,0,0,1,.346.622,3.363,3.363,0,0,1,.031.392c0,.131,0,.261,0,.4H4.7c.3,0,.611,0,.918,0,.077,0,.081-.031.081-.092V3.241c0-.119-.012-.242-.019-.376l-.038-.012c-.334,0-.668,0-1,0-.027,0-.058.027-.084.038l0,.023a2.553,2.553,0,0,1-.05.837,1.1,1.1,0,0,1-.776.76,1.86,1.86,0,0,1-.526.058c-.641.008-1.283,0-1.924,0a1.311,1.311,0,0,1-.78-.215,1.038,1.038,0,0,1-.476-.845C0,2.665.008,1.824.015.983A.925.925,0,0,1,.207.51a1.131,1.131,0,0,1,.876-.5c.323-.027.645,0,.968,0,.43,0,.86.012,1.29,0a1.146,1.146,0,0,1,.768.246,1.033,1.033,0,0,1,.426.822c0,.2,0,.407,0,.618l.1.008H6.233a.592.592,0,0,1,.588.561c0,.173.008.342.008.511q-.006,1.411,0,2.823v.1L6.9,5.71c.326,0,.653,0,.979,0,.073,0,.084-.031.084-.088,0-.177,0-.349,0-.522a1.066,1.066,0,0,1,.277-.7A1.181,1.181,0,0,1,8.963,4a1.029,1.029,0,0,1,.188-.008c.668,0,1.336,0,2,0a1.776,1.776,0,0,1,.534.05,1.1,1.1,0,0,1,.818,1.11c0,.71.008,1.421.012,2.131a1.33,1.33,0,0,1-.142.653,1.058,1.058,0,0,1-.837.58,4.643,4.643,0,0,1-.465.031c-.645,0-1.294.012-1.939,0a1.158,1.158,0,0,1-1.129-.868,3,3,0,0,1-.038-.83l-.008-.019M9.144,5.142l-.023.008a.494.494,0,0,0-.015.073v2.07c0,.046-.019.1.058.1s.134.012.2.012c.346,0,.7,0,1.041,0h.972V5.146L11.3,5.138H9.927c-.261,0-.522,0-.783,0m-5.734,4L3.376,9.12H1.141v2.273H3.406l.008-.042c0-.737,0-1.475,0-2.212m0-7.988H1.141v2.27l.023.008H3.337c.065,0,.077-.027.077-.084V1.152" transform="translate(0 0.002)" fill="#822abb" stroke="#822abb" stroke-width="0.3"/>
        </g>
      </g>
    </g>
  </g>
</svg>
