<svg xmlns="http://www.w3.org/2000/svg" width="115.179" height="21" viewBox="0 0 115.179 21">
  <g id="Group_614" data-name="Group 614" transform="translate(-2.096)">
    <text id="Reset_Files" data-name="Reset Files" transform="translate(37.275 16)" fill="#822abb" font-size="15" font-family="Poppins-SemiBold, Poppins" font-weight="600"><tspan x="0" y="0">Reset Files</tspan></text>
    <g id="Group_337" data-name="Group 337" transform="translate(-6.87 6.332)">
      <g id="Group_335" data-name="Group 335" transform="translate(8.966 -4.244)">
        <g id="Group_336" data-name="Group 336" transform="translate(0 0)">
          <path id="Path_173" data-name="Path 173" d="M8.783,4.207V5.873a4.756,4.756,0,0,0-1.594,8.044V11.972H8.783v4.783H4V15.16H6.176A6.361,6.361,0,0,1,8.783,4.207Zm7.972,1.387H14.579A6.362,6.362,0,0,1,16.7,9.58h-1.61a4.786,4.786,0,0,0-1.523-2.742V8.783H11.972V4h4.783Z" transform="translate(-4 -4)" fill="#822abb"/>
        </g>
      </g>
      <path id="Path_173-2" data-name="Path 173" d="M12.783,2H9.594A1.592,1.592,0,0,0,8.008,3.594L8,10.769a1.592,1.592,0,0,0,1.586,1.594h6.385a1.6,1.6,0,0,0,1.594-1.594V6.783ZM9.594,10.769V3.594h2.392V7.58h3.986v3.189Z" transform="translate(8.141 1.728)" fill="#822abb"/>
    </g>
  </g>
</svg>
