<svg xmlns="http://www.w3.org/2000/svg" width="257.179" height="21" viewBox="0 0 257.179 21">
  <g id="Group_622" data-name="Group 622" transform="translate(-296.13 -503.849)">
    <g id="Group_635" data-name="Group 635" transform="translate(294.034 503.849)">
      <text id="Empty_or_Drop_custom_tables" data-name="Empty or Drop custom tables" transform="translate(37.275 16)" fill="#822abb" font-size="15" font-family="Poppins-SemiBold, Poppins" font-weight="600"><tspan x="0" y="0">Empty or Drop custom tables</tspan></text>
      <g id="Group_337" data-name="Group 337" transform="translate(-6.87 6.332)">
        <g id="Group_335" data-name="Group 335" transform="translate(8.966 -4.244)">
          <g id="Group_336" data-name="Group 336" transform="translate(0 0)">
            <path id="Path_173" data-name="Path 173" d="M8.783,4.207V5.873a4.756,4.756,0,0,0-1.594,8.044V11.972H8.783v4.783H4V15.16H6.176A6.361,6.361,0,0,1,8.783,4.207Zm7.972,1.387H14.579A6.362,6.362,0,0,1,16.7,9.58h-1.61a4.786,4.786,0,0,0-1.523-2.742V8.783H11.972V4h4.783Z" transform="translate(-4 -4)" fill="#822abb"/>
          </g>
        </g>
      </g>
    </g>
    <g id="Group_637" data-name="Group 637" transform="translate(303 513)">
      <g id="Group_638" data-name="Group 638">
        <path id="Path_376" data-name="Path 376" d="M10.832,7.778A1.033,1.033,0,0,1,9.8,8.811H1.533A1.033,1.033,0,0,1,.5,7.778V1.533A1.033,1.033,0,0,1,1.533.5H5.472l.606,1.712h4.754Z" transform="translate(-0.242 -0.242)" fill="none" stroke="#822abb" stroke-linecap="round" stroke-linejoin="round" stroke-width="1.5"/>
      </g>
    </g>
  </g>
</svg>
