<svg xmlns="http://www.w3.org/2000/svg" width="17.365" height="17.365" viewBox="0 0 17.365 17.365">
	<rect width="17.365" height="17.365" fill="none" />
	<g transform="translate(1.533 1.903)">
		<rect width="2.167" height="6.124" transform="translate(8.437 9.07) rotate(-45)" />
		<path d="M13.222,7.948A2.53,2.53,0,0,0,15.75,5.42a2.5,2.5,0,0,0-.3-1.156L13.5,6.215,12.428,5.138l1.95-1.95a2.5,2.5,0,0,0-1.156-.3A2.531,2.531,0,0,0,10.694,5.42a2.463,2.463,0,0,0,.152.838L9.51,7.594,8.224,6.308,8.737,5.8,7.719,4.777,9.25,3.246a2.166,2.166,0,0,0-3.062,0L3.631,5.8,4.649,6.821H2.613L2.1,7.334,4.657,9.891l.513-.513V7.334L6.188,8.352,6.7,7.839,7.986,9.125,2.634,14.477l1.531,1.531L12.384,7.8A2.463,2.463,0,0,0,13.222,7.948Z" transform="translate(-2.1 -2.613)" />
	</g>
</svg>